<?xml version="1.0" encoding="UTF-8"?>
<svg xmlns="http://www.w3.org/2000/svg" onmouseup="{ if(window.parent.document.onmouseup) window.parent.document.onmouseup(arguments[0]);}" viewBox="0 0 1823.53 1358.48"><defs><style>.cls-1{fill:#d7282f;}.cls-2{fill:#0f2538;}.cls-3{fill:#fff;}</style></defs><title/><g data-name="Layer 2" id="Layer_2"><g data-name="Layer 1" id="Layer_1-2"><path data-cppathid="10000" d="M1823.53,679.24c0,375.14-304.1,679.24-679.24,679.24s-679.24-304.1-679.24-679.24S769.16,0,1144.29,0s679.24,304.11,679.24,679.24" class="cls-1"/><path data-cppathid="10001" d="M675,679.59c0,186.39-151.1,337.48-337.49,337.48S0,866,0,679.59,151.1,342.11,337.48,342.11,675,493.2,675,679.59" class="cls-2"/><path data-cppathid="10002" d="M268.76,605.2a67.12,67.12,0,0,0-36.34,10.07,68.83,68.83,0,0,0-25,27,77.74,77.74,0,0,0-8.87,36.68,80,80,0,0,0,9,37.71,69.75,69.75,0,0,0,25.17,27.3A67.21,67.21,0,0,0,269.11,754a64.22,64.22,0,0,0,36.53-10.93q16.31-10.92,26.59-31.74h70.2a130.44,130.44,0,0,1-27.65,52.39A134.72,134.72,0,0,1,328,798.34a139.9,139.9,0,0,1-58.15,12.28,147.09,147.09,0,0,1-53-9.55A134.91,134.91,0,0,1,172,772.76Q151,753.29,141.28,729.24t-9.76-53.4q0-33.12,18.09-62.45T198.9,566.3a134.74,134.74,0,0,1,67.74-17.75q27.3,0,49.64,7.51a131.28,131.28,0,0,1,41.83,23.55q37.59,31,44.32,69.62h-70.2q-8.5-20.49-25.7-32.26a65.57,65.57,0,0,0-37.77-11.77" class="cls-3"/><polygon data-cppathid="10003" points="872.4 553.33 872.4 609.97 777.03 609.97 777.03 652.97 868.99 652.97 868.99 709.61 777.03 709.61 777.03 805.85 699.61 805.85 699.61 553.33 872.4 553.33" class="cls-3"/><polygon data-cppathid="10004" points="1074.41 553.33 1074.41 609.97 976.04 609.97 976.04 649.22 1071.42 649.22 1071.42 705.87 976.04 705.87 976.04 749.2 1074.41 749.2 1074.41 805.85 898.63 805.85 898.63 553.33 1074.41 553.33" class="cls-3"/><polygon data-cppathid="10005" points="1780.25 553.12 1780.25 609.76 1681.88 609.76 1681.88 649.01 1777.25 649.01 1777.25 705.66 1681.88 705.66 1681.88 748.99 1780.25 748.99 1780.25 805.64 1604.46 805.64 1604.46 553.12 1780.25 553.12" class="cls-3"/><polygon data-cppathid="10006" points="1171.02 805.85 1100.6 805.85 1100.6 553.33 1164.03 553.33 1276.08 713.03 1272.97 553.33 1343.39 553.33 1343.39 805.85 1279.57 805.85 1169.09 651.61 1171.02 805.85" class="cls-3"/><path data-cppathid="10007" d="M1474.85,602.26q-11.53,0-19.68,5.79t-8.12,14q0,10.59,11.1,17.06t40.63,16.73q34.67,11.94,53.47,23.2t26.3,23.89q7.48,12.62,7.48,30,0,36.52-29.5,57t-80.84,20.46q-52.61,0-83.39-21.49t-30.79-61.42V722h80.4q.43,15.71,9.4,25.09t24,9.38a33.74,33.74,0,0,0,21.39-7q9-7,9-17.25,0-11.94-14.32-19.61t-40.84-15.87a27.09,27.09,0,0,0-4.07-1.19,20.22,20.22,0,0,1-4.49-1.55q-38.92-12.62-57.11-29.67t-18.17-41.64q0-20.81,15.19-37.87t40.63-26.79a151.34,151.34,0,0,1,54.54-9.73q30.35,0,56,10.59t37.85,26.78q12.18,16.21,12.61,41.12h-80q-2.58-13.3-9.42-18.94t-19.23-5.63" class="cls-3"/><path data-cppathid="10008" d="M398,685.39q0-38.57,17.91-69.79a129.91,129.91,0,0,1,49.47-49.13q31.58-17.93,70.93-17.92a144,144,0,0,1,69.49,17.23Q637.74,583,656.35,612.7A120.31,120.31,0,0,1,675,677.89q0,36.84-18.09,67.22a131.61,131.61,0,0,1-49.11,47.94q-31,17.58-68.26,17.58a155.8,155.8,0,0,1-69.32-15.87q-32.43-15.87-52.3-44.53T398,685.39M608,679.93a77.27,77.27,0,0,0-9.22-37,72,72,0,0,0-25.53-27.47,68,68,0,0,0-36.87-10.23q-20.58,0-36.71,10.07a71.71,71.71,0,0,0-25.36,27,75.44,75.44,0,0,0-9.21,36.69,78.39,78.39,0,0,0,9.21,37.87A70.53,70.53,0,0,0,500,743.91Q516.47,754,537.38,754a67.24,67.24,0,0,0,36.36-10.07A70.38,70.38,0,0,0,598.91,717a77.32,77.32,0,0,0,9-37m0,0a77.27,77.27,0,0,0-9.22-37,72,72,0,0,0-25.53-27.47,68,68,0,0,0-36.87-10.23q-20.58,0-36.71,10.07a71.71,71.71,0,0,0-25.36,27,75.44,75.44,0,0,0-9.21,36.69,78.39,78.39,0,0,0,9.21,37.87A70.53,70.53,0,0,0,500,743.91Q516.47,754,537.38,754a67.24,67.24,0,0,0,36.36-10.07A70.38,70.38,0,0,0,598.91,717a77.32,77.32,0,0,0,9-37" class="cls-3"/><path data-cppathid="10009" d="M608,679.93a77.27,77.27,0,0,0-9.22-37,72,72,0,0,0-25.53-27.47,68,68,0,0,0-36.87-10.23q-20.58,0-36.71,10.07a71.71,71.71,0,0,0-25.36,27,75.44,75.44,0,0,0-9.21,36.69,78.39,78.39,0,0,0,9.21,37.87A70.53,70.53,0,0,0,500,743.91Q516.47,754,537.38,754a67.24,67.24,0,0,0,36.36-10.07A70.38,70.38,0,0,0,598.91,717a77.32,77.32,0,0,0,9-37" class="cls-1"/><path data-cppathid="10010" d="M1758.62,820.57h-7.34v19.84h-1.75V820.57h-7.34v-1.49h16.43Z" class="cls-3"/><path data-cppathid="10011" d="M1762.14,819.08l7.84,18.78h.09l7.86-18.78h2.32v21.33h-1.74V831l.14-9.33-.09,0-7.92,18.78h-1.22l-7.91-18.69h-.08l.16,9.26v9.42h-1.75V819.08Z" class="cls-3"/></g></g></svg>